:version 1.10
:name ASF
:units
  mass 1
  length 1
  angle deg
:documentation
  ASF file generated by Kaydara
:root
  axis xyz
  order  tx ty tz rx ry rz
  position 0 0 0
  orientation 0 0 0
:bonedata
  begin
    id 1
    name RightUpLegDummy
    direction -0.718183 -0.695806 0.00816078
    length 4.904
    axis 0 0 0 xyz
  end
  begin
    id 2
    name RightUpLeg
    direction -0.0736652 -0.994202 0.0783343
    length 17.4976
    axis -2.72909 -3.00389 -4.00133 xyz
    dof rx ry rz
  end
  begin
    id 3
    name RightLeg
    direction -0.0389037 -0.994596 -0.0962598
    length 16.5821
    axis 3.95836 -18.5909 -4.46993 xyz
    dof rx ry rz
  end
  begin
    id 4
    name RightFoot
    direction -0.311643 -0.412678 0.855906
    length 3.77069
    axis -1.99483 -18.8351 -3.27644 xyz
    dof rx ry rz
  end
  begin
    id 5
    name RightToes
    direction -0.317852 0.0389852 0.947339
    length 3.85082
    axis -2.00228 -18.1713 -3.25211 xyz
    dof rx ry rz
  end
  begin
    id 6
    name SpineDummy
    direction 8.3039e-015 1 4.44677e-016
    length 4.6813
    axis 0 0 0 xyz
  end
  begin
    id 7
    name Spine
    direction -0.000262373 0.999988 0.00493267
    length 10.1015
    axis -0.00246081 0.00062579 0.0150362 xyz
    dof rx ry rz
  end
  begin
    id 8
    name Spine1
    direction 0 0 0
    length 0
    axis -0.00349562 0.000650293 0.0196666 xyz
    dof rx ry rz
  end
  begin
    id 9
    name HEadDummy
    direction -0.000343232 0.999999 0.00123745
    length 3.43865
    axis -0.00349562 0.000650293 0.0196666 xyz
  end
  begin
    id 10
    name HEad
    direction -0.0461221 0.980933 0.188796
    length 5.12695
    axis -0.00351404 -7.04812 0.0199272 xyz
    dof rx ry rz
  end
  begin
    id 11
    name LeftShoulder1Dummy
    direction 0.998904 -0.0399089 -0.0244534
    length 3.5433
    axis -0.00349562 0.000650293 0.0196666 xyz
  end
  begin
    id 12
    name LeftShoulder1
    direction 0.99951 1.64443e-005 0.0312999
    length 4.05031
    axis -0.00349562 0.000650293 0.0196666 xyz
    dof rx ry rz
  end
  begin
    id 13
    name LeftArm
    direction 0.984791 0.0515299 0.165927
    length 12.9126
    axis -64.823 -10.7743 5.20463 xyz
    dof rx ry rz
  end
  begin
    id 14
    name LeftForeArm
    direction 0.984968 0.0534808 0.16425
    length 10.8596
    axis -30.0462 -7.70601 1.87451 xyz
    dof rx ry rz
  end
  begin
    id 15
    name LeftHand
    direction 0.975871 0.0289682 0.216418
    length 6.62295
    axis -20.1348 -6.98077 1.86072 xyz
    dof rx ry rz
  end
  begin
    id 16
    name RightShoulderDummy
    direction -0.998877 -0.0405946 -0.0244307
    length 3.5433
    axis -0.00349562 0.000650293 0.0196666 xyz
  end
  begin
    id 17
    name RightShoulder
    direction -0.998933 -0.0249743 -0.0388558
    length 4.05031
    axis -0.0205316 -4.02113 1.41395 xyz
    dof rx ry rz
  end
  begin
    id 18
    name RightArm
    direction -0.997559 0.068664 0.0127103
    length 12.9638
    axis -67.3882 1.84188 -6.15987 xyz
    dof rx ry rz
  end
  begin
    id 19
    name RightForeArm
    direction -0.991508 0.0912848 0.0926241
    length 10.8312
    axis -22.1975 3.41087 -4.28711 xyz
    dof rx ry rz
  end
  begin
    id 20
    name RightHand
    direction -0.989262 0.0600788 0.133232
    length 6.57864
    axis -12.2911 2.17515 -4.39675 xyz
    dof rx ry rz
  end
  begin
    id 21
    name LeftUpLegDummy
    direction 0.718183 -0.695806 0.00816078
    length 4.904
    axis 0 0 0 xyz
  end
  begin
    id 22
    name LeftUpLeg
    direction 0.0831398 -0.99469 0.0606531
    length 17.4976
    axis -1.71016 2.29552 4.63832 xyz
    dof rx ry rz
  end
  begin
    id 23
    name LeftLeg
    direction 0.0498442 -0.991778 -0.117862
    length 16.5821
    axis 5.13757 15.5727 5.13348 xyz
    dof rx ry rz
  end
  begin
    id 24
    name LeftFoot
    direction 0.269026 -0.433896 0.85986
    length 3.77069
    axis -0.576502 15.6961 4.10267 xyz
    dof rx ry rz
  end
  begin
    id 25
    name LeftToes
    direction 0.277311 0.0251143 0.960452
    length 3.85048
    axis -0.576502 15.6961 4.10267 xyz
    dof rx ry rz
  end
:hierarchy
  begin
    root RightUpLegDummy SpineDummy LeftUpLegDummy
    RightUpLegDummy RightUpLeg
    RightUpLeg RightLeg
    RightLeg RightFoot
    RightFoot RightToes
    SpineDummy Spine
    Spine Spine1
    Spine1 HEadDummy LeftShoulder1Dummy RightShoulderDummy
    HEadDummy HEad
    LeftShoulder1Dummy LeftShoulder1
    LeftShoulder1 LeftArm
    LeftArm LeftForeArm
    LeftForeArm LeftHand
    RightShoulderDummy RightShoulder
    RightShoulder RightArm
    RightArm RightForeArm
    RightForeArm RightHand
    LeftUpLegDummy LeftUpLeg
    LeftUpLeg LeftLeg
    LeftLeg LeftFoot
    LeftFoot LeftToes
  end

:SAMPLES-PER-SECOND 30
:FULLY-SPECIFIED
:DEGREES
123
root  -0.00796921 20.2406 1.54113 -129.5 8.99237 -155.708
RightUpLeg  -107.764 -0.22499 37.0767
RightLeg  120.06 11.9282 6.21466
RightFoot  -34.1904 -0.827081 -5.10483
RightToes  -5.82073e-011 -3.18055e-015 -2.98177e-016
Spine  47.7455 3.82757 20.3925
Spine1  -5.34442 12.3548 -8.81903
HEad  -35.7169 -4.0687 -2.84288
LeftShoulder1  -3.88251e-019 9.70628e-020 -3.87848e-018
LeftArm  -2.92952 -31.2219 -73.2619
LeftForeArm  9.31144 -7.24237 -7.73123
LeftHand  -11.1374 -11.3592 69.5605
RightShoulder  1.08429 8.66274 0.919466
RightArm  2.82711 37.5333 61.9653
RightForeArm  8.41167 1.68754 -9.04811
RightHand  -3.76246 3.77908 -44.7658
LeftUpLeg  -56.5156 11.2953 4.30454
LeftLeg  120.791 -18.6231 8.45315
LeftFoot  -33.0683 -4.90539 -26.84
LeftToes  -3.44176e-011 4.05998e-011 -5.21293e-012
124
root  0.0466295 20.4638 0.814549 -128.632 8.02563 -155.116
RightUpLeg  -106.003 -1.73242 36.3594
RightLeg  120.961 10.1409 8.93593
RightFoot  -34.1497 -0.288566 -2.1819
RightToes  -5.82073e-011 -3.18055e-015 -2.98177e-016
Spine  47.2415 4.12012 20.6604
Spine1  -4.51151 12.6644 -7.56152
HEad  -36.2517 -2.95271 -2.30507
LeftShoulder1  -3.88251e-019 9.70628e-020 -3.87848e-018
LeftArm  -2.41887 -30.7844 -73.7754
LeftForeArm  9.3534 -6.67458 -8.16159
LeftHand  -11.6031 -11.4761 71.3919
RightShoulder  1.28501 8.83238 2.09808
RightArm  2.82107 36.2369 60.7013
RightForeArm  6.79139 4.0495 -8.93425
RightHand  -5.26526 5.34183 -52.6743
LeftUpLeg  -55.0692 11.2704 5.75623
LeftLeg  118.38 -17.9414 8.08298
LeftFoot  -32.8893 -4.57398 -25.2781
LeftToes  -3.44176e-011 4.05998e-011 -5.21293e-012
125
root  0.239533 20.5423 0.0573583 -127.411 7.2796 -154.796
RightUpLeg  -104.065 -2.20368 34.3938
RightLeg  123.138 9.45309 9.24436
RightFoot  -32.8125 0.481981 2.18567
RightToes  -5.82073e-011 -3.18055e-015 -2.98177e-016
Spine  45.9997 4.3287 20.4467
Spine1  -3.63811 12.6516 -6.88855
HEad  -36.4689 -1.63173 -1.92803
LeftShoulder1  -3.88251e-019 9.70628e-020 -3.87848e-018
LeftArm  -2.8703 -29.7555 -73.3627
LeftForeArm  10.102 -6.78343 -8.27027
LeftHand  -12.1985 -11.7038 73.3991
RightShoulder  1.41785 8.81771 2.97412
RightArm  2.92099 34.7613 60.2628
RightForeArm  4.90078 6.47996 -8.90715
RightHand  -6.498 6.77088 -56.6409
LeftUpLeg  -54.0094 11.4761 6.92045
LeftLeg  116.328 -17.4984 7.92026
LeftFoot  -32.511 -4.29686 -24.2299
LeftToes  -3.44176e-011 4.05998e-011 -5.21293e-012
126
root  0.573724 20.4732 -0.678148 -126.476 6.21898 -155.447
RightUpLeg  -101.731 -2.6801 31.3017
RightLeg  126.443 9.94407 7.44229
RightFoot  -29.9695 0.740809 4.29702
RightToes  -5.82073e-011 -3.18055e-015 -2.98177e-016
Spine  44.3264 4.06226 20.0502
Spine1  -2.83304 12.1304 -6.46152
HEad  -36.1718 -0.662975 -1.82607
LeftShoulder1  -3.88251e-019 9.70628e-020 -3.87848e-018
LeftArm  -3.73534 -28.2092 -72.6196
LeftForeArm  11.4703 -7.17814 -8.21133
LeftHand  -12.5421 -11.9151 74.2395
RightShoulder  1.48431 8.67565 3.53477
RightArm  3.32863 33.4139 61.047
RightForeArm  3.84124 7.38268 -8.54292
RightHand  -7.28368 7.32828 -60.0044
LeftUpLeg  -52.9815 11.2522 7.6288
LeftLeg  114.42 -17.3717 8.263
LeftFoot  -32.5901 -4.24966 -23.8666
LeftToes  -3.44176e-011 4.05998e-011 -5.21293e-012
127
root  1.01304 20.33 -1.34988 -126.158 4.74808 -157.582
RightUpLeg  -98.7704 -3.84779 27.5252
RightLeg  129.344 10.7209 5.6936
RightFoot  -27.9152 0.527203 3.38346
RightToes  -5.82073e-011 -3.18055e-015 -2.98177e-016
Spine  42.5676 3.35192 19.1553
Spine1  -2.05521 10.9021 -5.48548
HEad  -35.7326 0.0157765 -1.52929
LeftShoulder1  -3.88251e-019 9.70628e-020 -3.87848e-018
LeftArm  -4.17868 -26.6721 -72.0061
LeftForeArm  12.8679 -7.00022 -8.23026
LeftHand  -12.7585 -12.0151 74.86
RightShoulder  1.55391 8.55121 4.10826
RightArm  3.73848 32.1684 62.3853
RightForeArm  3.3819 7.32419 -8.06119
RightHand  -7.95527 7.51564 -63.7313
LeftUpLeg  -51.835 9.97424 7.69849
LeftLeg  112.421 -17.3901 8.9726
LeftFoot  -33.2025 -4.4484 -24.2092
LeftToes  -3.44176e-011 4.05998e-011 -5.21293e-012
